<svg xmlns="http://www.w3.org/2000/svg" viewBox="-60 -60 120 120" width="200" height="200">
  <g fill="none" stroke="currentColor" stroke-width="2">
    <path transform="scale(0.5) translate(-60 0)" d="M -20 -34.6 L 20 -34.6 40 0 20 34.6 -20 34.6 -40 0z"/>
    <path transform="scale(0.5) translate(-60 69.2)" d="M -20 -34.6 L 20 -34.6 40 0 20 34.6 -20 34.6 -40 0z"/>
    <path transform="scale(0.5) translate(-60 -69.2)" d="M -20 -34.6 L 20 -34.6 40 0 20 34.6 -20 34.6 -40 0z"/>
    <path transform="scale(0.5) translate(0 34.6)" d="M -20 -34.6 L 20 -34.6 40 0 20 34.6 -20 34.6 -40 0z"/>
    <path transform="scale(0.5) translate(0 -34.6)" d="M -20 -34.6 L 20 -34.6 40 0 20 34.6 -20 34.6 -40 0z"/>
    <path transform="scale(0.5) translate(60 0)" d="M -20 -34.6 L 20 -34.6 40 0 20 34.6 -20 34.6 -40 0z"/>
    <path transform="scale(0.5) translate(60 69.2)" d="M -20 -34.6 L 20 -34.6 40 0 20 34.6 -20 34.6 -40 0z"/>
    <path transform="scale(0.5) translate(60 -69.2)" d="M -20 -34.6 L 20 -34.6 40 0 20 34.6 -20 34.6 -40 0z"/>
  </g>
  <g fill="currentColor" font-size="8" text-anchor="middle" dominant-baseline="middle">
    <text x="-30" y="-34.6">(1,1)</text>
    <text x="0" y="-17.3">(2,1)</text>
    <text x="30" y="-34.6">(3,1)</text>
    <text x="-30" y="0">(1,2)</text>
    <text x="0" y="17.3">(2,2)</text>
    <text x="30" y="0">(3,2)</text>
    <text x="-30" y="34.6">(1,3)</text>
    <text x="30" y="34.6">(3,3)</text>
  </g>
</svg>