<svg xmlns="http://www.w3.org/2000/svg" viewBox="-50 -50 100 100" width="200" height="200">
  <g fill="none" stroke="currentColor" stroke-width="2">
    <g transform="translate(-20 -17.3) scale(0.5)">
      <path transform="scale(1 -1)" d="M -40 -34.6 L 40 -34.6 0 34.6z" />
    </g>
    <path transform="translate(0 -17.3) scale(0.5)" d="M -40 -34.6 L 40 -34.6 0 34.6z" />
    <g transform="translate(20 -17.3) scale(0.5)">
      <path transform="scale(1 -1)" d="M -40 -34.6 L 40 -34.6 0 34.6z" />
    </g>
    <path transform="translate(-20 17.3) scale(0.5)" d="M -40 -34.6 L 40 -34.6 0 34.6z" />
    <g transform="translate(0 17.3) scale(0.5)">
      <path transform="scale(1 -1)" d="M -40 -34.6 L 40 -34.6 0 34.6z" />
    </g>
    <path transform="translate(20 17.3) scale(0.5)" d="M -40 -34.6 L 40 -34.6 0 34.6z" />
  </g>
  <g fill="currentColor" font-size="8" text-anchor="middle" dominant-baseline="middle">
    <text x="-20" y="-10">(1,1)</text>
    <text y="-22.5">(2,1)</text>
    <text x="20" y="-10">(3,1)</text>
    <text x="-20" y="10">(1,2)</text>
    <text y="22.5">(2,2)</text>
    <text x="20" y="10">(3,2)</text>
  </g>
</svg>